# xmcd
#
# Track frame offsets:
# 150
# 19550
# 36085
# 53916
# 70525
# 88289
# 108536
# 126874
# 144191
# 161487
# 179998
# 208157
#
# Disc length: 3547 seconds
#
#
# Revision: 3
# Processed by: cddbd v1.5.2PL0 Copyright (c) Steve Scherf et al.
# Submitted via: FreeRIP 2.91 
#
DISCID=aa0dd90c
DTITLE=Jennifer Hanson - Jennifer Hanson
DYEAR=2003
DGENRE=Country
TTITLE0=Beautiful Goodbye
TTITLE1=Just One Of Those Days
TTITLE2=Half A Heart Tattoo
TTITLE3=This Far Gone
TTITLE4=Get Yourself Back
TTITLE5=All Those Yesterdays
TTITLE6=Travis
TTITLE7=One Little Word
TTITLE8=It Isn't Just Raining
TTITLE9=Baby I Was Wrong
TTITLE10=Simply Yours
TTITLE11=DATA
EXTD=
EXTT0=
EXTT1=
EXTT2=
EXTT3=
EXTT4=
EXTT5=
EXTT6=
EXTT7=
EXTT8=
EXTT9=
EXTT10=
EXTT11=
PLAYORDER=
